<?xml version="1.0" standalone="no"?><!DOCTYPE svg PUBLIC "-//W3C//DTD SVG 1.1//EN" "http://www.w3.org/Graphics/SVG/1.1/DTD/svg11.dtd"><svg xmlns="http://www.w3.org/2000/svg" version="1.1" width="162px" height="76.75px" viewBox="0 0 162 76.75">  <desc>Leyla Jimenez Real Estate Broker 773 510-8813 Leyla jimenez5658 gmail com www ljimenez illinoisproperty com</desc>  <defs/>  <g id="Polygon403">    <path d="M 0.3 58 L 1.2 58 C 1.2 58 1.98 61.05 2 61 C 2.1 61.6 2.2 62 2.3 62.5 C 2.3 62.5 2.3 62.5 2.3 62.5 C 2.5 62 2.6 61.5 2.7 61 C 2.71 61.05 3.5 58 3.5 58 L 4.4 58 C 4.4 58 5.25 61.05 5.2 61 C 5.4 61.6 5.5 62 5.6 62.5 C 5.6 62.5 5.7 62.5 5.7 62.5 C 5.8 62 5.9 61.6 6 61 C 5.99 61.05 6.8 58 6.8 58 L 7.6 58 L 6.2 63.3 L 5.1 63.3 C 5.1 63.3 4.33 60.43 4.3 60.4 C 4.2 59.9 4.1 59.4 4 58.9 C 4 58.9 3.9 58.9 3.9 58.9 C 3.8 59.4 3.7 59.9 3.6 60.4 C 3.55 60.44 2.8 63.3 2.8 63.3 L 1.7 63.3 L 0.3 58 Z M 8.2 58 L 9.1 58 C 9.1 58 9.88 61.05 9.9 61 C 10 61.6 10.1 62 10.2 62.5 C 10.2 62.5 10.2 62.5 10.2 62.5 C 10.4 62 10.5 61.5 10.6 61 C 10.6 61.05 11.4 58 11.4 58 L 12.3 58 C 12.3 58 13.14 61.05 13.1 61 C 13.3 61.6 13.4 62 13.5 62.5 C 13.5 62.5 13.6 62.5 13.6 62.5 C 13.7 62 13.8 61.6 13.9 61 C 13.89 61.05 14.7 58 14.7 58 L 15.5 58 L 14.1 63.3 L 13 63.3 C 13 63.3 12.23 60.43 12.2 60.4 C 12.1 59.9 12 59.4 11.9 58.9 C 11.9 58.9 11.8 58.9 11.8 58.9 C 11.7 59.4 11.6 59.9 11.5 60.4 C 11.45 60.44 10.7 63.3 10.7 63.3 L 9.6 63.3 L 8.2 58 Z M 16.1 58 L 17 58 C 17 58 17.78 61.05 17.8 61 C 17.9 61.6 18 62 18.1 62.5 C 18.1 62.5 18.1 62.5 18.1 62.5 C 18.3 62 18.4 61.5 18.5 61 C 18.5 61.05 19.3 58 19.3 58 L 20.2 58 C 20.2 58 21.04 61.05 21 61 C 21.2 61.6 21.3 62 21.4 62.5 C 21.4 62.5 21.5 62.5 21.5 62.5 C 21.6 62 21.7 61.6 21.8 61 C 21.79 61.05 22.6 58 22.6 58 L 23.4 58 L 22 63.3 L 20.9 63.3 C 20.9 63.3 20.13 60.43 20.1 60.4 C 20 59.9 19.9 59.4 19.8 58.9 C 19.8 58.9 19.7 58.9 19.7 58.9 C 19.6 59.4 19.5 59.9 19.3 60.4 C 19.35 60.44 18.6 63.3 18.6 63.3 L 17.5 63.3 L 16.1 58 Z M 24 62.7 C 24 62.3 24.3 62 24.6 62 C 25 62 25.3 62.3 25.3 62.7 C 25.3 63.1 25 63.4 24.6 63.4 C 24.3 63.4 24 63.1 24 62.7 Z M 26.9 62.2 C 26.88 62.22 26.9 55.5 26.9 55.5 L 27.8 55.5 C 27.8 55.5 27.78 62.29 27.8 62.3 C 27.8 62.6 27.9 62.7 28 62.7 C 28.1 62.7 28.1 62.7 28.2 62.7 C 28.2 62.7 28.4 63.3 28.4 63.3 C 28.2 63.4 28.1 63.4 27.8 63.4 C 27.2 63.4 26.9 63 26.9 62.2 Z M 28.4 65.5 C 28.4 65.5 28.6 64.9 28.6 64.9 C 28.8 64.9 28.9 65 29.1 65 C 29.7 65 29.8 64.6 29.8 63.9 C 29.79 63.91 29.8 58 29.8 58 L 30.7 58 C 30.7 58 30.69 63.91 30.7 63.9 C 30.7 65 30.3 65.7 29.2 65.7 C 28.9 65.7 28.6 65.6 28.4 65.5 Z M 29.6 56.3 C 29.6 55.9 29.9 55.7 30.2 55.7 C 30.6 55.7 30.9 55.9 30.9 56.3 C 30.9 56.6 30.6 56.9 30.2 56.9 C 29.9 56.9 29.6 56.6 29.6 56.3 Z M 32.5 58 L 33.4 58 L 33.4 63.3 L 32.5 63.3 L 32.5 58 Z M 32.3 56.3 C 32.3 55.9 32.6 55.7 33 55.7 C 33.3 55.7 33.6 55.9 33.6 56.3 C 33.6 56.6 33.3 56.9 33 56.9 C 32.6 56.9 32.3 56.6 32.3 56.3 Z M 35.2 58 L 35.9 58 L 36 58.7 C 36 58.7 36.06 58.72 36.1 58.7 C 36.5 58.2 37.1 57.8 37.7 57.8 C 38.5 57.8 39 58.2 39.2 58.8 C 39.8 58.2 40.3 57.8 41 57.8 C 42.1 57.8 42.6 58.5 42.6 59.9 C 42.58 59.91 42.6 63.3 42.6 63.3 L 41.7 63.3 C 41.7 63.3 41.68 60.03 41.7 60 C 41.7 59 41.4 58.6 40.7 58.6 C 40.3 58.6 39.8 58.9 39.3 59.4 C 39.35 59.43 39.3 63.3 39.3 63.3 L 38.4 63.3 C 38.4 63.3 38.44 60.03 38.4 60 C 38.4 59 38.1 58.6 37.4 58.6 C 37 58.6 36.6 58.9 36.1 59.4 C 36.1 59.43 36.1 63.3 36.1 63.3 L 35.2 63.3 L 35.2 58 Z M 43.9 60.6 C 43.9 58.9 45.1 57.8 46.3 57.8 C 47.7 57.8 48.5 58.8 48.5 60.3 C 48.5 60.5 48.4 60.7 48.4 60.8 C 48.4 60.8 44.8 60.8 44.8 60.8 C 44.9 62 45.6 62.7 46.6 62.7 C 47.1 62.7 47.5 62.5 47.9 62.3 C 47.9 62.3 48.2 62.9 48.2 62.9 C 47.8 63.2 47.2 63.4 46.5 63.4 C 45.1 63.4 43.9 62.4 43.9 60.6 Z M 47.7 60.2 C 47.7 59.1 47.2 58.5 46.3 58.5 C 45.6 58.5 44.9 59.1 44.8 60.2 C 44.8 60.2 47.7 60.2 47.7 60.2 Z M 49.8 58 L 50.5 58 L 50.6 58.7 C 50.6 58.7 50.63 58.72 50.6 58.7 C 51.1 58.2 51.7 57.8 52.4 57.8 C 53.5 57.8 54.1 58.5 54.1 59.9 C 54.05 59.91 54.1 63.3 54.1 63.3 L 53.2 63.3 C 53.2 63.3 53.15 60.03 53.2 60 C 53.2 59 52.8 58.6 52.1 58.6 C 51.6 58.6 51.2 58.9 50.7 59.4 C 50.68 59.43 50.7 63.3 50.7 63.3 L 49.8 63.3 L 49.8 58 Z M 55.4 60.6 C 55.4 58.9 56.6 57.8 57.8 57.8 C 59.2 57.8 59.9 58.8 59.9 60.3 C 59.9 60.5 59.9 60.7 59.9 60.8 C 59.9 60.8 56.3 60.8 56.3 60.8 C 56.4 62 57 62.7 58.1 62.7 C 58.6 62.7 59 62.5 59.4 62.3 C 59.4 62.3 59.7 62.9 59.7 62.9 C 59.3 63.2 58.7 63.4 58 63.4 C 56.5 63.4 55.4 62.4 55.4 60.6 Z M 59.1 60.2 C 59.1 59.1 58.7 58.5 57.8 58.5 C 57.1 58.5 56.4 59.1 56.3 60.2 C 56.3 60.2 59.1 60.2 59.1 60.2 Z M 60.7 62.8 L 63.5 58.7 L 61 58.7 L 61 58 L 64.6 58 L 64.6 58.4 L 61.8 62.6 L 64.7 62.6 L 64.7 63.3 L 60.7 63.3 L 60.7 62.8 Z M 65.7 62.7 C 65.7 62.3 66 62 66.4 62 C 66.7 62 67 62.3 67 62.7 C 67 63.1 66.7 63.4 66.4 63.4 C 66 63.4 65.7 63.1 65.7 62.7 Z M 68.7 58 L 69.6 58 L 69.6 63.3 L 68.7 63.3 L 68.7 58 Z M 68.5 56.3 C 68.5 55.9 68.8 55.7 69.1 55.7 C 69.5 55.7 69.7 55.9 69.7 56.3 C 69.7 56.6 69.5 56.9 69.1 56.9 C 68.8 56.9 68.5 56.6 68.5 56.3 Z M 71.4 62.2 C 71.37 62.22 71.4 55.5 71.4 55.5 L 72.3 55.5 C 72.3 55.5 72.27 62.29 72.3 62.3 C 72.3 62.6 72.4 62.7 72.5 62.7 C 72.6 62.7 72.6 62.7 72.7 62.7 C 72.7 62.7 72.8 63.3 72.8 63.3 C 72.7 63.4 72.6 63.4 72.3 63.4 C 71.6 63.4 71.4 63 71.4 62.2 Z M 74.2 62.2 C 74.17 62.22 74.2 55.5 74.2 55.5 L 75.1 55.5 C 75.1 55.5 75.07 62.29 75.1 62.3 C 75.1 62.6 75.2 62.7 75.3 62.7 C 75.4 62.7 75.4 62.7 75.5 62.7 C 75.5 62.7 75.6 63.3 75.6 63.3 C 75.5 63.4 75.4 63.4 75.1 63.4 C 74.4 63.4 74.2 63 74.2 62.2 Z M 77 58 L 77.9 58 L 77.9 63.3 L 77 63.3 L 77 58 Z M 76.8 56.3 C 76.8 55.9 77.1 55.7 77.4 55.7 C 77.8 55.7 78.1 55.9 78.1 56.3 C 78.1 56.6 77.8 56.9 77.4 56.9 C 77.1 56.9 76.8 56.6 76.8 56.3 Z M 79.7 58 L 80.4 58 L 80.5 58.7 C 80.5 58.7 80.54 58.72 80.5 58.7 C 81 58.2 81.6 57.8 82.3 57.8 C 83.5 57.8 84 58.5 84 59.9 C 83.96 59.91 84 63.3 84 63.3 L 83.1 63.3 C 83.1 63.3 83.06 60.03 83.1 60 C 83.1 59 82.8 58.6 82 58.6 C 81.5 58.6 81.1 58.9 80.6 59.4 C 80.58 59.43 80.6 63.3 80.6 63.3 L 79.7 63.3 L 79.7 58 Z M 85.3 60.6 C 85.3 58.8 86.5 57.8 87.8 57.8 C 89.1 57.8 90.3 58.8 90.3 60.6 C 90.3 62.4 89.1 63.4 87.8 63.4 C 86.5 63.4 85.3 62.4 85.3 60.6 Z M 89.3 60.6 C 89.3 59.4 88.7 58.6 87.8 58.6 C 86.9 58.6 86.2 59.4 86.2 60.6 C 86.2 61.9 86.9 62.7 87.8 62.7 C 88.7 62.7 89.3 61.9 89.3 60.6 Z M 91.7 58 L 92.6 58 L 92.6 63.3 L 91.7 63.3 L 91.7 58 Z M 91.5 56.3 C 91.5 55.9 91.8 55.7 92.1 55.7 C 92.5 55.7 92.7 55.9 92.7 56.3 C 92.7 56.6 92.5 56.9 92.1 56.9 C 91.8 56.9 91.5 56.6 91.5 56.3 Z M 93.8 62.7 C 93.8 62.7 94.2 62.1 94.2 62.1 C 94.7 62.5 95.2 62.7 95.8 62.7 C 96.5 62.7 96.9 62.4 96.9 61.9 C 96.9 61.3 96.2 61.1 95.6 60.9 C 94.9 60.6 94 60.2 94 59.3 C 94 58.5 94.7 57.8 95.9 57.8 C 96.5 57.8 97.1 58.1 97.5 58.4 C 97.5 58.4 97.1 59 97.1 59 C 96.7 58.7 96.4 58.5 95.9 58.5 C 95.2 58.5 94.9 58.9 94.9 59.3 C 94.9 59.8 95.5 60 96.1 60.2 C 96.9 60.5 97.7 60.8 97.7 61.8 C 97.7 62.7 97 63.4 95.8 63.4 C 95 63.4 94.3 63.1 93.8 62.7 Z M 99 58 L 99.7 58 L 99.8 58.6 C 99.8 58.6 99.83 58.57 99.8 58.6 C 100.3 58.2 100.9 57.8 101.5 57.8 C 102.9 57.8 103.7 58.9 103.7 60.5 C 103.7 62.4 102.6 63.4 101.3 63.4 C 100.8 63.4 100.4 63.2 99.9 62.8 C 99.86 62.82 99.9 63.8 99.9 63.8 L 99.9 65.6 L 99 65.6 L 99 58 Z M 102.7 60.5 C 102.7 59.4 102.3 58.6 101.3 58.6 C 100.9 58.6 100.4 58.8 99.9 59.3 C 99.9 59.3 99.9 62.1 99.9 62.1 C 100.4 62.5 100.8 62.7 101.2 62.7 C 102.1 62.7 102.7 61.9 102.7 60.5 Z M 105.1 58 L 105.8 58 L 105.9 58.9 C 105.9 58.9 105.94 58.92 105.9 58.9 C 106.3 58.3 106.9 57.8 107.5 57.8 C 107.7 57.8 107.9 57.9 108 57.9 C 108 57.9 107.9 58.7 107.9 58.7 C 107.7 58.7 107.6 58.6 107.3 58.6 C 106.9 58.6 106.3 59 106 59.9 C 105.98 59.87 106 63.3 106 63.3 L 105.1 63.3 L 105.1 58 Z M 108.4 60.6 C 108.4 58.8 109.6 57.8 110.9 57.8 C 112.2 57.8 113.3 58.8 113.3 60.6 C 113.3 62.4 112.2 63.4 110.9 63.4 C 109.6 63.4 108.4 62.4 108.4 60.6 Z M 112.4 60.6 C 112.4 59.4 111.8 58.6 110.9 58.6 C 110 58.6 109.3 59.4 109.3 60.6 C 109.3 61.9 110 62.7 110.9 62.7 C 111.8 62.7 112.4 61.9 112.4 60.6 Z M 114.8 58 L 115.5 58 L 115.6 58.6 C 115.6 58.6 115.61 58.57 115.6 58.6 C 116.1 58.2 116.7 57.8 117.3 57.8 C 118.7 57.8 119.4 58.9 119.4 60.5 C 119.4 62.4 118.3 63.4 117.1 63.4 C 116.6 63.4 116.1 63.2 115.6 62.8 C 115.63 62.82 115.7 63.8 115.7 63.8 L 115.7 65.6 L 114.8 65.6 L 114.8 58 Z M 118.5 60.5 C 118.5 59.4 118.1 58.6 117.1 58.6 C 116.6 58.6 116.2 58.8 115.7 59.3 C 115.7 59.3 115.7 62.1 115.7 62.1 C 116.1 62.5 116.6 62.7 117 62.7 C 117.8 62.7 118.5 61.9 118.5 60.5 Z M 120.5 60.6 C 120.5 58.9 121.6 57.8 122.9 57.8 C 124.2 57.8 125 58.8 125 60.3 C 125 60.5 125 60.7 125 60.8 C 125 60.8 121.3 60.8 121.3 60.8 C 121.4 62 122.1 62.7 123.1 62.7 C 123.6 62.7 124.1 62.5 124.5 62.3 C 124.5 62.3 124.8 62.9 124.8 62.9 C 124.3 63.2 123.7 63.4 123 63.4 C 121.6 63.4 120.5 62.4 120.5 60.6 Z M 124.2 60.2 C 124.2 59.1 123.7 58.5 122.9 58.5 C 122.1 58.5 121.4 59.1 121.3 60.2 C 121.3 60.2 124.2 60.2 124.2 60.2 Z M 126.3 58 L 127.1 58 L 127.1 58.9 C 127.1 58.9 127.17 58.92 127.2 58.9 C 127.5 58.3 128.1 57.8 128.7 57.8 C 128.9 57.8 129.1 57.9 129.3 57.9 C 129.3 57.9 129.1 58.7 129.1 58.7 C 128.9 58.7 128.8 58.6 128.6 58.6 C 128.1 58.6 127.6 59 127.2 59.9 C 127.21 59.87 127.2 63.3 127.2 63.3 L 126.3 63.3 L 126.3 58 Z M 130.3 61.7 C 130.28 61.65 130.3 58.7 130.3 58.7 L 129.5 58.7 L 129.5 58 L 130.3 58 L 130.4 56.5 L 131.2 56.5 L 131.2 58 L 132.6 58 L 132.6 58.7 L 131.2 58.7 C 131.2 58.7 131.19 61.66 131.2 61.7 C 131.2 62.3 131.4 62.7 132 62.7 C 132.2 62.7 132.4 62.6 132.6 62.6 C 132.6 62.6 132.8 63.2 132.8 63.2 C 132.5 63.3 132.1 63.4 131.8 63.4 C 130.7 63.4 130.3 62.7 130.3 61.7 Z M 133.3 65.5 C 133.3 65.5 133.5 64.8 133.5 64.8 C 133.6 64.8 133.8 64.9 133.9 64.9 C 134.5 64.9 134.9 64.4 135.1 63.7 C 135.1 63.71 135.2 63.3 135.2 63.3 L 133.1 58 L 134 58 C 134 58 135.1 60.91 135.1 60.9 C 135.3 61.4 135.5 61.9 135.6 62.4 C 135.6 62.4 135.7 62.4 135.7 62.4 C 135.8 61.9 136 61.4 136.1 60.9 C 136.11 60.91 137.1 58 137.1 58 L 137.9 58 C 137.9 58 135.94 63.74 135.9 63.7 C 135.6 64.8 135 65.6 133.9 65.6 C 133.7 65.6 133.5 65.6 133.3 65.5 Z M 138.4 62.7 C 138.4 62.3 138.7 62 139.1 62 C 139.4 62 139.7 62.3 139.7 62.7 C 139.7 63.1 139.4 63.4 139.1 63.4 C 138.7 63.4 138.4 63.1 138.4 62.7 Z M 140.8 60.6 C 140.8 58.8 142 57.8 143.4 57.8 C 144.1 57.8 144.6 58.1 145 58.4 C 145 58.4 144.5 59 144.5 59 C 144.2 58.8 143.9 58.6 143.4 58.6 C 142.5 58.6 141.8 59.4 141.8 60.6 C 141.8 61.9 142.4 62.7 143.4 62.7 C 143.9 62.7 144.3 62.4 144.7 62.1 C 144.7 62.1 145.1 62.8 145.1 62.8 C 144.6 63.2 144 63.4 143.3 63.4 C 141.9 63.4 140.8 62.4 140.8 60.6 Z M 145.6 60.6 C 145.6 58.8 146.8 57.8 148.1 57.8 C 149.4 57.8 150.6 58.8 150.6 60.6 C 150.6 62.4 149.4 63.4 148.1 63.4 C 146.8 63.4 145.6 62.4 145.6 60.6 Z M 149.6 60.6 C 149.6 59.4 149 58.6 148.1 58.6 C 147.2 58.6 146.5 59.4 146.5 60.6 C 146.5 61.9 147.2 62.7 148.1 62.7 C 149 62.7 149.6 61.9 149.6 60.6 Z M 152 58 L 152.7 58 L 152.8 58.7 C 152.8 58.7 152.82 58.72 152.8 58.7 C 153.3 58.2 153.8 57.8 154.5 57.8 C 155.3 57.8 155.7 58.2 156 58.8 C 156.5 58.2 157.1 57.8 157.7 57.8 C 158.8 57.8 159.3 58.5 159.3 59.9 C 159.34 59.91 159.3 63.3 159.3 63.3 L 158.4 63.3 C 158.4 63.3 158.44 60.03 158.4 60 C 158.4 59 158.1 58.6 157.5 58.6 C 157 58.6 156.6 58.9 156.1 59.4 C 156.11 59.43 156.1 63.3 156.1 63.3 L 155.2 63.3 C 155.2 63.3 155.21 60.03 155.2 60 C 155.2 59 154.9 58.6 154.2 58.6 C 153.8 58.6 153.4 58.9 152.9 59.4 C 152.86 59.43 152.9 63.3 152.9 63.3 L 152 63.3 L 152 58 Z " stroke="none" fill="#000"/>  </g>  <g id="Polygon402">    <path d="M 1 42.9 L 1.9 42.9 L 1.9 49.3 L 5.1 49.3 L 5.1 50.1 L 1 50.1 L 1 42.9 Z M 5.7 47.4 C 5.7 45.7 6.9 44.6 8.1 44.6 C 9.5 44.6 10.3 45.6 10.3 47.1 C 10.3 47.3 10.2 47.5 10.2 47.6 C 10.2 47.6 6.6 47.6 6.6 47.6 C 6.7 48.8 7.4 49.5 8.4 49.5 C 8.9 49.5 9.3 49.3 9.7 49.1 C 9.7 49.1 10 49.7 10 49.7 C 9.6 50 9 50.2 8.3 50.2 C 6.9 50.2 5.7 49.2 5.7 47.4 Z M 9.5 47 C 9.5 45.9 9 45.3 8.1 45.3 C 7.4 45.3 6.7 45.9 6.6 47 C 6.6 47 9.5 47 9.5 47 Z M 11.1 52.3 C 11.1 52.3 11.3 51.6 11.3 51.6 C 11.4 51.6 11.5 51.7 11.7 51.7 C 12.3 51.7 12.7 51.2 12.9 50.5 C 12.88 50.51 13 50.1 13 50.1 L 10.9 44.8 L 11.8 44.8 C 11.8 44.8 12.88 47.71 12.9 47.7 C 13 48.2 13.2 48.7 13.4 49.2 C 13.4 49.2 13.4 49.2 13.4 49.2 C 13.6 48.7 13.7 48.2 13.9 47.7 C 13.89 47.71 14.8 44.8 14.8 44.8 L 15.7 44.8 C 15.7 44.8 13.72 50.54 13.7 50.5 C 13.3 51.6 12.8 52.4 11.7 52.4 C 11.5 52.4 11.3 52.4 11.1 52.3 Z M 16.8 49 C 16.76 49.02 16.8 42.3 16.8 42.3 L 17.7 42.3 C 17.7 42.3 17.66 49.09 17.7 49.1 C 17.7 49.4 17.8 49.5 17.9 49.5 C 18 49.5 18 49.5 18.1 49.5 C 18.1 49.5 18.2 50.1 18.2 50.1 C 18.1 50.2 18 50.2 17.7 50.2 C 17 50.2 16.8 49.8 16.8 49 Z M 19.2 48.7 C 19.2 47.5 20.2 47 22.5 46.7 C 22.5 46 22.3 45.4 21.4 45.4 C 20.8 45.4 20.2 45.7 19.8 45.9 C 19.8 45.9 19.5 45.3 19.5 45.3 C 20 45 20.7 44.6 21.6 44.6 C 22.9 44.6 23.4 45.5 23.4 46.8 C 23.43 46.82 23.4 50.1 23.4 50.1 L 22.7 50.1 L 22.6 49.5 C 22.6 49.5 22.57 49.46 22.6 49.5 C 22.1 49.9 21.5 50.2 20.8 50.2 C 19.9 50.2 19.2 49.7 19.2 48.7 Z M 22.5 48.8 C 22.5 48.8 22.5 47.3 22.5 47.3 C 20.7 47.5 20.1 48 20.1 48.6 C 20.1 49.3 20.5 49.5 21.1 49.5 C 21.6 49.5 22 49.3 22.5 48.8 Z M 24.9 49.5 C 24.9 49.1 25.2 48.8 25.6 48.8 C 25.9 48.8 26.2 49.1 26.2 49.5 C 26.2 49.9 25.9 50.2 25.6 50.2 C 25.2 50.2 24.9 49.9 24.9 49.5 Z M 26.8 52.3 C 26.8 52.3 27 51.7 27 51.7 C 27.1 51.7 27.3 51.8 27.5 51.8 C 28 51.8 28.1 51.4 28.1 50.7 C 28.15 50.71 28.1 44.8 28.1 44.8 L 29 44.8 C 29 44.8 29.05 50.71 29 50.7 C 29 51.8 28.7 52.5 27.6 52.5 C 27.3 52.5 27 52.4 26.8 52.3 Z M 28 43.1 C 28 42.7 28.3 42.5 28.6 42.5 C 29 42.5 29.2 42.7 29.2 43.1 C 29.2 43.4 29 43.7 28.6 43.7 C 28.3 43.7 28 43.4 28 43.1 Z M 30.9 44.8 L 31.8 44.8 L 31.8 50.1 L 30.9 50.1 L 30.9 44.8 Z M 30.7 43.1 C 30.7 42.7 31 42.5 31.3 42.5 C 31.7 42.5 31.9 42.7 31.9 43.1 C 31.9 43.4 31.7 43.7 31.3 43.7 C 31 43.7 30.7 43.4 30.7 43.1 Z M 33.6 44.8 L 34.3 44.8 L 34.4 45.5 C 34.4 45.5 34.42 45.52 34.4 45.5 C 34.9 45 35.4 44.6 36.1 44.6 C 36.9 44.6 37.3 45 37.6 45.6 C 38.1 45 38.7 44.6 39.3 44.6 C 40.4 44.6 40.9 45.3 40.9 46.7 C 40.94 46.71 40.9 50.1 40.9 50.1 L 40 50.1 C 40 50.1 40.04 46.83 40 46.8 C 40 45.8 39.7 45.4 39 45.4 C 38.6 45.4 38.2 45.7 37.7 46.2 C 37.71 46.23 37.7 50.1 37.7 50.1 L 36.8 50.1 C 36.8 50.1 36.81 46.83 36.8 46.8 C 36.8 45.8 36.5 45.4 35.8 45.4 C 35.4 45.4 35 45.7 34.5 46.2 C 34.46 46.23 34.5 50.1 34.5 50.1 L 33.6 50.1 L 33.6 44.8 Z M 42.3 47.4 C 42.3 45.7 43.5 44.6 44.7 44.6 C 46 44.6 46.8 45.6 46.8 47.1 C 46.8 47.3 46.8 47.5 46.8 47.6 C 46.8 47.6 43.2 47.6 43.2 47.6 C 43.2 48.8 43.9 49.5 45 49.5 C 45.5 49.5 45.9 49.3 46.3 49.1 C 46.3 49.1 46.6 49.7 46.6 49.7 C 46.1 50 45.6 50.2 44.8 50.2 C 43.4 50.2 42.3 49.2 42.3 47.4 Z M 46 47 C 46 45.9 45.5 45.3 44.7 45.3 C 44 45.3 43.3 45.9 43.2 47 C 43.2 47 46 47 46 47 Z M 48.1 44.8 L 48.9 44.8 L 49 45.5 C 49 45.5 48.99 45.52 49 45.5 C 49.5 45 50 44.6 50.8 44.6 C 51.9 44.6 52.4 45.3 52.4 46.7 C 52.41 46.71 52.4 50.1 52.4 50.1 L 51.5 50.1 C 51.5 50.1 51.51 46.83 51.5 46.8 C 51.5 45.8 51.2 45.4 50.5 45.4 C 49.9 45.4 49.6 45.7 49 46.2 C 49.04 46.23 49 50.1 49 50.1 L 48.1 50.1 L 48.1 44.8 Z M 53.8 47.4 C 53.8 45.7 54.9 44.6 56.2 44.6 C 57.5 44.6 58.3 45.6 58.3 47.1 C 58.3 47.3 58.3 47.5 58.3 47.6 C 58.3 47.6 54.6 47.6 54.6 47.6 C 54.7 48.8 55.4 49.5 56.4 49.5 C 56.9 49.5 57.4 49.3 57.8 49.1 C 57.8 49.1 58.1 49.7 58.1 49.7 C 57.6 50 57 50.2 56.3 50.2 C 54.9 50.2 53.8 49.2 53.8 47.4 Z M 57.5 47 C 57.5 45.9 57 45.3 56.2 45.3 C 55.4 45.3 54.7 45.9 54.6 47 C 54.6 47 57.5 47 57.5 47 Z M 59 49.6 L 61.9 45.5 L 59.4 45.5 L 59.4 44.8 L 63 44.8 L 63 45.2 L 60.2 49.4 L 63.1 49.4 L 63.1 50.1 L 59 50.1 L 59 49.6 Z M 63.7 49.3 C 63.7 49.3 64.1 48.7 64.1 48.7 C 64.5 49.1 65 49.5 65.9 49.5 C 66.7 49.5 67.4 48.9 67.4 47.9 C 67.4 46.9 66.8 46.3 65.9 46.3 C 65.4 46.3 65.1 46.5 64.7 46.8 C 64.71 46.77 64.2 46.5 64.2 46.5 L 64.5 43.1 L 68 43.1 L 68 43.9 L 65.3 43.9 C 65.3 43.9 65.06 45.94 65.1 45.9 C 65.4 45.8 65.7 45.7 66.1 45.7 C 67.3 45.7 68.3 46.3 68.3 47.9 C 68.3 49.4 67.2 50.2 66 50.2 C 64.8 50.2 64.1 49.8 63.7 49.3 Z M 69.4 46.9 C 69.4 44 70.7 43 72 43 C 72.8 43 73.3 43.3 73.7 43.7 C 73.7 43.7 73.2 44.3 73.2 44.3 C 73 43.9 72.5 43.7 72.1 43.7 C 71.1 43.7 70.3 44.5 70.2 46.7 C 70.7 46.2 71.3 45.8 71.9 45.8 C 73.1 45.8 73.9 46.5 73.9 48 C 73.9 49.3 72.9 50.2 71.8 50.2 C 70.4 50.2 69.4 49.1 69.4 46.9 Z M 73 48 C 73 47.1 72.6 46.5 71.7 46.5 C 71.3 46.5 70.7 46.8 70.3 47.4 C 70.4 48.8 70.9 49.5 71.8 49.5 C 72.5 49.5 73 48.9 73 48 Z M 74.6 49.3 C 74.6 49.3 75 48.7 75 48.7 C 75.4 49.1 76 49.5 76.8 49.5 C 77.7 49.5 78.3 48.9 78.3 47.9 C 78.3 46.9 77.7 46.3 76.8 46.3 C 76.4 46.3 76.1 46.5 75.6 46.8 C 75.65 46.77 75.2 46.5 75.2 46.5 L 75.4 43.1 L 78.9 43.1 L 78.9 43.9 L 76.2 43.9 C 76.2 43.9 76 45.94 76 45.9 C 76.3 45.8 76.6 45.7 77.1 45.7 C 78.3 45.7 79.3 46.3 79.3 47.9 C 79.3 49.4 78.1 50.2 76.9 50.2 C 75.8 50.2 75.1 49.8 74.6 49.3 Z M 80.2 48.3 C 80.2 47.4 80.9 46.8 81.6 46.4 C 81.6 46.4 81.6 46.4 81.6 46.4 C 81 46 80.6 45.5 80.6 44.8 C 80.6 43.7 81.4 43 82.6 43 C 83.8 43 84.5 43.7 84.5 44.8 C 84.5 45.6 84 46.2 83.6 46.5 C 83.6 46.5 83.6 46.6 83.6 46.6 C 84.2 46.9 84.8 47.4 84.8 48.4 C 84.8 49.4 83.9 50.2 82.5 50.2 C 81.2 50.2 80.2 49.4 80.2 48.3 Z M 83.8 44.9 C 83.8 44.2 83.3 43.6 82.5 43.6 C 81.9 43.6 81.4 44.1 81.4 44.8 C 81.4 45.6 82.2 45.9 83 46.3 C 83.5 45.9 83.8 45.4 83.8 44.9 Z M 83.9 48.3 C 83.9 47.4 83 47.1 82 46.7 C 81.5 47.1 81 47.6 81 48.2 C 81 49 81.7 49.6 82.6 49.6 C 83.4 49.6 83.9 49.1 83.9 48.3 Z M 85.8 47.9 C 85.8 44.9 87.9 43 90.4 43 C 92.6 43 94 44.5 94 46.6 C 94 48.6 92.8 49.6 91.8 49.6 C 91.2 49.6 90.7 49.3 90.7 48.7 C 90.7 48.7 90.6 48.7 90.6 48.7 C 90.3 49.2 89.8 49.5 89.3 49.5 C 88.6 49.5 88 48.9 88 47.9 C 88 46.7 88.8 45.4 90.1 45.4 C 90.5 45.4 90.8 45.5 91 45.9 C 90.98 45.9 91 45.9 91 45.9 L 91.1 45.5 L 91.7 45.5 C 91.7 45.5 91.3 47.66 91.3 47.7 C 91.1 48.5 91.3 48.9 91.9 48.9 C 92.6 48.9 93.4 48.1 93.4 46.7 C 93.4 44.9 92.3 43.6 90.3 43.6 C 88.4 43.6 86.5 45.3 86.5 47.8 C 86.5 50 87.9 51.2 89.7 51.2 C 90.4 51.2 91 51 91.5 50.7 C 91.5 50.7 91.8 51.2 91.8 51.2 C 91.1 51.6 90.4 51.8 89.7 51.8 C 87.5 51.8 85.8 50.4 85.8 47.9 Z M 90.5 48.2 C 90.5 48.2 90.8 46.5 90.8 46.5 C 90.6 46.1 90.4 46 90.1 46 C 89.2 46 88.7 47 88.7 47.9 C 88.7 48.6 89 48.9 89.5 48.9 C 89.8 48.9 90.1 48.7 90.5 48.2 Z M 95.1 51.1 C 95.1 50.7 95.4 50.2 95.8 49.9 C 95.8 49.9 95.8 49.9 95.8 49.9 C 95.6 49.7 95.4 49.4 95.4 49 C 95.4 48.5 95.7 48.2 96 48 C 96 48 96 48 96 48 C 95.6 47.7 95.3 47.2 95.3 46.5 C 95.3 45.4 96.2 44.6 97.3 44.6 C 97.6 44.6 97.8 44.7 98 44.8 C 98.03 44.75 99.9 44.8 99.9 44.8 L 99.9 45.4 C 99.9 45.4 98.79 45.45 98.8 45.4 C 99 45.7 99.2 46.1 99.2 46.5 C 99.2 47.7 98.4 48.4 97.3 48.4 C 97 48.4 96.7 48.3 96.5 48.2 C 96.3 48.4 96.1 48.6 96.1 48.9 C 96.1 49.2 96.3 49.4 97.1 49.4 C 97.1 49.4 98.1 49.4 98.1 49.4 C 99.4 49.4 100 49.8 100 50.7 C 100 51.7 98.9 52.6 97.3 52.6 C 96 52.6 95.1 52 95.1 51.1 Z M 98.4 46.5 C 98.4 45.7 97.9 45.3 97.3 45.3 C 96.6 45.3 96.1 45.7 96.1 46.5 C 96.1 47.3 96.7 47.8 97.3 47.8 C 97.9 47.8 98.4 47.3 98.4 46.5 Z M 99.1 50.8 C 99.1 50.4 98.7 50.2 98 50.2 C 98 50.2 97.1 50.2 97.1 50.2 C 96.9 50.2 96.6 50.2 96.4 50.1 C 96 50.4 95.9 50.7 95.9 51 C 95.9 51.6 96.4 51.9 97.4 51.9 C 98.4 51.9 99.1 51.4 99.1 50.8 Z M 101 44.8 L 101.8 44.8 L 101.8 45.5 C 101.8 45.5 101.87 45.52 101.9 45.5 C 102.3 45 102.9 44.6 103.5 44.6 C 104.3 44.6 104.8 45 105 45.6 C 105.6 45 106.1 44.6 106.8 44.6 C 107.9 44.6 108.4 45.3 108.4 46.7 C 108.39 46.71 108.4 50.1 108.4 50.1 L 107.5 50.1 C 107.5 50.1 107.49 46.83 107.5 46.8 C 107.5 45.8 107.2 45.4 106.5 45.4 C 106.1 45.4 105.7 45.7 105.2 46.2 C 105.16 46.23 105.2 50.1 105.2 50.1 L 104.3 50.1 C 104.3 50.1 104.26 46.83 104.3 46.8 C 104.3 45.8 103.9 45.4 103.3 45.4 C 102.9 45.4 102.4 45.7 101.9 46.2 C 101.91 46.23 101.9 50.1 101.9 50.1 L 101 50.1 L 101 44.8 Z M 109.8 48.7 C 109.8 47.5 110.8 47 113.1 46.7 C 113.1 46 112.9 45.4 112 45.4 C 111.4 45.4 110.8 45.7 110.4 45.9 C 110.4 45.9 110 45.3 110 45.3 C 110.5 45 111.3 44.6 112.1 44.6 C 113.4 44.6 114 45.5 114 46.8 C 113.99 46.82 114 50.1 114 50.1 L 113.2 50.1 L 113.2 49.5 C 113.2 49.5 113.13 49.46 113.1 49.5 C 112.6 49.9 112 50.2 111.4 50.2 C 110.5 50.2 109.8 49.7 109.8 48.7 Z M 113.1 48.8 C 113.1 48.8 113.1 47.3 113.1 47.3 C 111.3 47.5 110.7 48 110.7 48.6 C 110.7 49.3 111.1 49.5 111.6 49.5 C 112.1 49.5 112.6 49.3 113.1 48.8 Z M 115.7 44.8 L 116.6 44.8 L 116.6 50.1 L 115.7 50.1 L 115.7 44.8 Z M 115.5 43.1 C 115.5 42.7 115.8 42.5 116.1 42.5 C 116.5 42.5 116.8 42.7 116.8 43.1 C 116.8 43.4 116.5 43.7 116.1 43.7 C 115.8 43.7 115.5 43.4 115.5 43.1 Z M 118.4 49 C 118.38 49.02 118.4 42.3 118.4 42.3 L 119.3 42.3 C 119.3 42.3 119.28 49.09 119.3 49.1 C 119.3 49.4 119.4 49.5 119.5 49.5 C 119.6 49.5 119.6 49.5 119.7 49.5 C 119.7 49.5 119.9 50.1 119.9 50.1 C 119.7 50.2 119.6 50.2 119.3 50.2 C 118.7 50.2 118.4 49.8 118.4 49 Z M 121 49.5 C 121 49.1 121.3 48.8 121.7 48.8 C 122 48.8 122.3 49.1 122.3 49.5 C 122.3 49.9 122 50.2 121.7 50.2 C 121.3 50.2 121 49.9 121 49.5 Z M 123.4 47.4 C 123.4 45.6 124.6 44.6 126 44.6 C 126.7 44.6 127.2 44.9 127.5 45.2 C 127.5 45.2 127.1 45.8 127.1 45.8 C 126.8 45.6 126.4 45.4 126 45.4 C 125 45.4 124.3 46.2 124.3 47.4 C 124.3 48.7 125 49.5 126 49.5 C 126.5 49.5 126.9 49.2 127.2 48.9 C 127.2 48.9 127.6 49.6 127.6 49.6 C 127.2 50 126.6 50.2 125.9 50.2 C 124.5 50.2 123.4 49.2 123.4 47.4 Z M 128.2 47.4 C 128.2 45.6 129.4 44.6 130.7 44.6 C 132 44.6 133.1 45.6 133.1 47.4 C 133.1 49.2 132 50.2 130.7 50.2 C 129.4 50.2 128.2 49.2 128.2 47.4 Z M 132.2 47.4 C 132.2 46.2 131.6 45.4 130.7 45.4 C 129.8 45.4 129.1 46.2 129.1 47.4 C 129.1 48.7 129.8 49.5 130.7 49.5 C 131.6 49.5 132.2 48.7 132.2 47.4 Z M 134.6 44.8 L 135.3 44.8 L 135.4 45.5 C 135.4 45.5 135.41 45.52 135.4 45.5 C 135.9 45 136.4 44.6 137.1 44.6 C 137.9 44.6 138.3 45 138.5 45.6 C 139.1 45 139.7 44.6 140.3 44.6 C 141.4 44.6 141.9 45.3 141.9 46.7 C 141.93 46.71 141.9 50.1 141.9 50.1 L 141 50.1 C 141 50.1 141.03 46.83 141 46.8 C 141 45.8 140.7 45.4 140 45.4 C 139.6 45.4 139.2 45.7 138.7 46.2 C 138.7 46.23 138.7 50.1 138.7 50.1 L 137.8 50.1 C 137.8 50.1 137.8 46.83 137.8 46.8 C 137.8 45.8 137.5 45.4 136.8 45.4 C 136.4 45.4 135.9 45.7 135.5 46.2 C 135.45 46.23 135.5 50.1 135.5 50.1 L 134.6 50.1 L 134.6 44.8 Z " stroke="none" fill="#000"/>  </g>  <g id="Polygon401">    <path d="M 0.9 33.8 C 0.9 31.9 1.4 30.3 2.4 28.8 C 2.4 28.8 2.9 29.1 2.9 29.1 C 2.1 30.5 1.6 32.2 1.6 33.8 C 1.6 35.5 2.1 37.2 2.9 38.6 C 2.9 38.6 2.4 38.8 2.4 38.8 C 1.4 37.4 0.9 35.8 0.9 33.8 Z M 7.3 30.7 C 7.31 30.66 3.8 30.7 3.8 30.7 L 3.8 29.9 L 8.3 29.9 C 8.3 29.9 8.34 30.44 8.3 30.4 C 6.7 32.6 6.3 34.2 6.2 36.9 C 6.2 36.9 5.3 36.9 5.3 36.9 C 5.4 34.3 5.9 32.6 7.3 30.7 Z M 12.8 30.7 C 12.78 30.66 9.3 30.7 9.3 30.7 L 9.3 29.9 L 13.8 29.9 C 13.8 29.9 13.8 30.44 13.8 30.4 C 12.1 32.6 11.8 34.2 11.7 36.9 C 11.7 36.9 10.7 36.9 10.7 36.9 C 10.9 34.3 11.4 32.6 12.8 30.7 Z M 14.6 36 C 14.6 36 15 35.4 15 35.4 C 15.4 35.9 16 36.3 16.8 36.3 C 17.7 36.3 18.3 35.8 18.3 35 C 18.3 34.2 17.7 33.6 16 33.6 C 16 33.6 16 32.9 16 32.9 C 17.5 32.9 18 32.3 18 31.6 C 18 30.9 17.5 30.5 16.8 30.5 C 16.2 30.5 15.7 30.8 15.3 31.2 C 15.3 31.2 14.8 30.6 14.8 30.6 C 15.4 30.1 16 29.8 16.8 29.8 C 18.1 29.8 18.9 30.4 18.9 31.5 C 18.9 32.4 18.4 32.9 17.7 33.2 C 17.7 33.2 17.7 33.2 17.7 33.2 C 18.5 33.4 19.2 34.1 19.2 35 C 19.2 36.3 18.2 37 16.9 37 C 15.7 37 15 36.6 14.6 36 Z M 20.2 38.6 C 21 37.2 21.4 35.5 21.4 33.8 C 21.4 32.2 21 30.5 20.2 29.1 C 20.2 29.1 20.7 28.8 20.7 28.8 C 21.6 30.3 22.2 31.9 22.2 33.8 C 22.2 35.8 21.6 37.4 20.7 38.8 C 20.7 38.8 20.2 38.6 20.2 38.6 Z M 25.5 36.1 C 25.5 36.1 26 35.5 26 35.5 C 26.4 35.9 26.9 36.3 27.8 36.3 C 28.6 36.3 29.3 35.7 29.3 34.7 C 29.3 33.7 28.7 33.1 27.8 33.1 C 27.3 33.1 27 33.3 26.6 33.6 C 26.6 33.57 26.1 33.3 26.1 33.3 L 26.3 29.9 L 29.9 29.9 L 29.9 30.7 L 27.1 30.7 C 27.1 30.7 26.95 32.74 27 32.7 C 27.3 32.6 27.6 32.5 28 32.5 C 29.2 32.5 30.2 33.1 30.2 34.7 C 30.2 36.2 29.1 37 27.8 37 C 26.7 37 26 36.6 25.5 36.1 Z M 31.6 36.2 L 33.2 36.2 L 33.2 31 L 31.9 31 C 31.9 31 31.93 30.4 31.9 30.4 C 32.6 30.3 33 30.1 33.4 29.9 C 33.42 29.88 34.1 29.9 34.1 29.9 L 34.1 36.2 L 35.6 36.2 L 35.6 36.9 L 31.6 36.9 L 31.6 36.2 Z M 36.7 33.4 C 36.7 31 37.5 29.8 38.9 29.8 C 40.3 29.8 41.2 31 41.2 33.4 C 41.2 35.7 40.3 37 38.9 37 C 37.5 37 36.7 35.7 36.7 33.4 Z M 40.3 33.4 C 40.3 31.3 39.8 30.5 38.9 30.5 C 38.1 30.5 37.6 31.3 37.6 33.4 C 37.6 35.4 38.1 36.3 38.9 36.3 C 39.8 36.3 40.3 35.4 40.3 33.4 Z M 42.1 33.8 L 44.6 33.8 L 44.6 34.5 L 42.1 34.5 L 42.1 33.8 Z M 45.5 35.1 C 45.5 34.2 46.2 33.6 46.9 33.2 C 46.9 33.2 46.9 33.2 46.9 33.2 C 46.3 32.8 45.9 32.3 45.9 31.6 C 45.9 30.5 46.7 29.8 47.9 29.8 C 49.1 29.8 49.9 30.5 49.9 31.6 C 49.9 32.4 49.3 33 48.9 33.3 C 48.9 33.3 48.9 33.4 48.9 33.4 C 49.5 33.7 50.1 34.2 50.1 35.2 C 50.1 36.2 49.2 37 47.8 37 C 46.5 37 45.5 36.2 45.5 35.1 Z M 49.1 31.7 C 49.1 31 48.6 30.4 47.8 30.4 C 47.2 30.4 46.7 30.9 46.7 31.6 C 46.7 32.4 47.5 32.7 48.3 33.1 C 48.8 32.7 49.1 32.2 49.1 31.7 Z M 49.2 35.1 C 49.2 34.2 48.3 33.9 47.3 33.5 C 46.8 33.9 46.4 34.4 46.4 35 C 46.4 35.8 47 36.4 47.9 36.4 C 48.7 36.4 49.2 35.9 49.2 35.1 Z M 51 35.1 C 51 34.2 51.7 33.6 52.3 33.2 C 52.3 33.2 52.3 33.2 52.3 33.2 C 51.8 32.8 51.3 32.3 51.3 31.6 C 51.3 30.5 52.2 29.8 53.3 29.8 C 54.6 29.8 55.3 30.5 55.3 31.6 C 55.3 32.4 54.8 33 54.4 33.3 C 54.4 33.3 54.4 33.4 54.4 33.4 C 55 33.7 55.6 34.2 55.6 35.2 C 55.6 36.2 54.7 37 53.3 37 C 52 37 51 36.2 51 35.1 Z M 54.5 31.7 C 54.5 31 54.1 30.4 53.3 30.4 C 52.7 30.4 52.2 30.9 52.2 31.6 C 52.2 32.4 53 32.7 53.8 33.1 C 54.3 32.7 54.5 32.2 54.5 31.7 Z M 54.7 35.1 C 54.7 34.2 53.8 33.9 52.8 33.5 C 52.2 33.9 51.8 34.4 51.8 35 C 51.8 35.8 52.5 36.4 53.3 36.4 C 54.1 36.4 54.7 35.9 54.7 35.1 Z M 56.9 36.2 L 58.5 36.2 L 58.5 31 L 57.2 31 C 57.2 31 57.22 30.4 57.2 30.4 C 57.9 30.3 58.3 30.1 58.7 29.9 C 58.71 29.88 59.4 29.9 59.4 29.9 L 59.4 36.2 L 60.9 36.2 L 60.9 36.9 L 56.9 36.9 L 56.9 36.2 Z M 61.8 36 C 61.8 36 62.2 35.4 62.2 35.4 C 62.7 35.9 63.2 36.3 64 36.3 C 64.9 36.3 65.5 35.8 65.5 35 C 65.5 34.2 64.9 33.6 63.2 33.6 C 63.2 33.6 63.2 32.9 63.2 32.9 C 64.7 32.9 65.2 32.3 65.2 31.6 C 65.2 30.9 64.8 30.5 64 30.5 C 63.4 30.5 62.9 30.8 62.5 31.2 C 62.5 31.2 62 30.6 62 30.6 C 62.6 30.1 63.2 29.8 64.1 29.8 C 65.3 29.8 66.2 30.4 66.2 31.5 C 66.2 32.4 65.6 32.9 64.9 33.2 C 64.9 33.2 64.9 33.2 64.9 33.2 C 65.7 33.4 66.4 34.1 66.4 35 C 66.4 36.3 65.4 37 64.1 37 C 63 37 62.2 36.6 61.8 36 Z " stroke="none" fill="#000"/>  </g>  <g id="Polygon400">    <path d="M 1.8 16.5 C 1.8 16.5 3.81 16.48 3.8 16.5 C 5.1 16.5 6.1 17 6.1 18.2 C 6.1 19.5 5.2 20.3 3.9 20.6 C 3.94 20.56 5.2 23.7 5.2 23.7 L 4.3 23.7 L 3.1 20.6 L 1.8 20.6 L 1.2 23.7 L 0.4 23.7 L 1.8 16.5 Z M 3.1 19.9 C 4.5 19.9 5.2 19.3 5.2 18.3 C 5.2 17.5 4.7 17.2 3.6 17.2 C 3.6 17.17 2.5 17.2 2.5 17.2 L 2 19.9 C 2 19.9 3.08 19.95 3.1 19.9 Z M 9.3 18.2 C 10.5 18.2 10.9 19.1 10.9 20.2 C 10.9 20.6 10.8 21 10.7 21.2 C 10.7 21.2 7.2 21.2 7.2 21.2 C 7.1 22.6 7.8 23.2 8.7 23.2 C 9.1 23.2 9.6 23 9.9 22.7 C 9.9 22.7 10.2 23.3 10.2 23.3 C 9.8 23.6 9.2 23.8 8.5 23.8 C 7.2 23.8 6.4 23 6.4 21.6 C 6.4 19.6 7.9 18.2 9.3 18.2 Z M 10.1 20.6 C 10.2 20.5 10.2 20.3 10.2 20.1 C 10.2 19.5 9.9 18.9 9.2 18.9 C 8.4 18.9 7.6 19.6 7.3 20.6 C 7.3 20.6 10.1 20.6 10.1 20.6 Z M 11.7 21.9 C 11.7 19.8 13.1 18.2 14.6 18.2 C 15.2 18.2 15.6 18.5 15.9 19 C 15.89 19.02 15.9 19 15.9 19 L 16.1 18.4 L 16.8 18.4 L 15.8 23.7 L 15.1 23.7 L 15.2 22.9 C 15.2 22.9 15.11 22.91 15.1 22.9 C 14.6 23.5 13.9 23.8 13.3 23.8 C 12.3 23.8 11.7 23.2 11.7 21.9 Z M 15.2 22.1 C 15.2 22.1 15.7 19.7 15.7 19.7 C 15.4 19.2 15 18.9 14.6 18.9 C 13.6 18.9 12.6 20.3 12.6 21.8 C 12.6 22.7 13 23.1 13.6 23.1 C 14.1 23.1 14.7 22.8 15.2 22.1 Z M 17.7 23.1 C 17.7 23 17.7 22.9 17.7 22.7 C 17.74 22.68 19.1 15.9 19.1 15.9 L 19.9 15.9 C 19.9 15.9 18.57 22.72 18.6 22.7 C 18.5 22.8 18.5 22.9 18.5 22.9 C 18.5 23.1 18.6 23.1 18.7 23.1 C 18.8 23.1 18.8 23.1 18.9 23.1 C 18.9 23.1 18.9 23.7 18.9 23.7 C 18.8 23.8 18.6 23.8 18.4 23.8 C 17.9 23.8 17.7 23.6 17.7 23.1 Z M 23.9 16.5 L 27.8 16.5 L 27.7 17.2 L 24.6 17.2 L 24.1 19.5 L 26.8 19.5 L 26.6 20.3 L 24 20.3 L 23.4 23 L 26.6 23 L 26.5 23.7 L 22.4 23.7 L 23.9 16.5 Z M 27.5 22.8 C 27.5 22.8 28 22.4 28 22.4 C 28.4 22.9 28.9 23.2 29.4 23.2 C 30 23.2 30.6 22.8 30.6 22.3 C 30.6 21.9 30.3 21.7 29.6 21.3 C 28.8 20.8 28.4 20.4 28.4 19.8 C 28.4 18.9 29.2 18.2 30.2 18.2 C 30.8 18.2 31.4 18.5 31.8 18.9 C 31.8 18.9 31.3 19.4 31.3 19.4 C 31 19.1 30.7 18.9 30.2 18.9 C 29.6 18.9 29.2 19.3 29.2 19.7 C 29.2 20.2 29.6 20.4 30.1 20.7 C 31.1 21.2 31.4 21.6 31.4 22.2 C 31.4 23.2 30.5 23.8 29.4 23.8 C 28.6 23.8 27.9 23.4 27.5 22.8 Z M 32.7 22.6 C 32.7 22.4 32.8 22.2 32.8 22.1 C 32.8 22.05 33.4 19 33.4 19 L 32.6 19 L 32.8 18.4 L 33.6 18.4 L 34 16.9 L 34.7 16.9 L 34.4 18.4 L 35.8 18.4 L 35.6 19 L 34.3 19 C 34.3 19 33.64 22.09 33.6 22.1 C 33.6 22.2 33.6 22.3 33.6 22.5 C 33.6 22.9 33.8 23.2 34.3 23.2 C 34.5 23.2 34.7 23.1 34.8 23 C 34.8 23 35 23.6 35 23.6 C 34.8 23.7 34.4 23.8 34 23.8 C 33.1 23.8 32.7 23.3 32.7 22.6 Z M 35.9 21.9 C 35.9 19.8 37.3 18.2 38.8 18.2 C 39.3 18.2 39.8 18.5 40 19 C 40.05 19.02 40.1 19 40.1 19 L 40.3 18.4 L 41 18.4 L 39.9 23.7 L 39.2 23.7 L 39.3 22.9 C 39.3 22.9 39.27 22.91 39.3 22.9 C 38.8 23.5 38.1 23.8 37.4 23.8 C 36.5 23.8 35.9 23.2 35.9 21.9 Z M 39.4 22.1 C 39.4 22.1 39.9 19.7 39.9 19.7 C 39.6 19.2 39.2 18.9 38.8 18.9 C 37.7 18.9 36.7 20.3 36.7 21.8 C 36.7 22.7 37.1 23.1 37.7 23.1 C 38.3 23.1 38.9 22.8 39.4 22.1 Z M 42.1 22.6 C 42.1 22.4 42.1 22.2 42.2 22.1 C 42.16 22.05 42.8 19 42.8 19 L 42 19 L 42.1 18.4 L 43 18.4 L 43.4 16.9 L 44.1 16.9 L 43.8 18.4 L 45.1 18.4 L 45 19 L 43.6 19 C 43.6 19 43 22.09 43 22.1 C 43 22.2 43 22.3 43 22.5 C 43 22.9 43.1 23.2 43.6 23.2 C 43.9 23.2 44 23.1 44.2 23 C 44.2 23 44.4 23.6 44.4 23.6 C 44.2 23.7 43.8 23.8 43.4 23.8 C 42.4 23.8 42.1 23.3 42.1 22.6 Z M 48.1 18.2 C 49.3 18.2 49.7 19.1 49.7 20.2 C 49.7 20.6 49.6 21 49.5 21.2 C 49.5 21.2 46.1 21.2 46.1 21.2 C 45.9 22.6 46.6 23.2 47.5 23.2 C 47.9 23.2 48.4 23 48.7 22.7 C 48.7 22.7 49 23.3 49 23.3 C 48.6 23.6 48 23.8 47.3 23.8 C 46 23.8 45.2 23 45.2 21.6 C 45.2 19.6 46.7 18.2 48.1 18.2 Z M 48.9 20.6 C 49 20.5 49 20.3 49 20.1 C 49 19.5 48.7 18.9 48 18.9 C 47.2 18.9 46.4 19.6 46.1 20.6 C 46.1 20.6 48.9 20.6 48.9 20.6 Z M 54 16.5 C 54 16.5 55.96 16.48 56 16.5 C 57.3 16.5 58.2 17 58.2 18.1 C 58.2 19.1 57.4 19.7 56.6 19.9 C 56.6 19.9 56.6 19.9 56.6 19.9 C 57.3 20.1 57.9 20.6 57.9 21.4 C 57.9 23 56.6 23.7 54.9 23.7 C 54.9 23.7 52.6 23.7 52.6 23.7 L 54 16.5 Z M 55.3 19.6 C 56.7 19.6 57.3 19 57.3 18.2 C 57.3 17.5 56.8 17.2 55.7 17.2 C 55.75 17.15 54.7 17.2 54.7 17.2 L 54.3 19.6 C 54.3 19.6 55.3 19.59 55.3 19.6 Z M 54.8 23 C 56.2 23 57.1 22.6 57.1 21.4 C 57.1 20.7 56.5 20.2 55.4 20.2 C 55.42 20.21 54.1 20.2 54.1 20.2 L 53.6 23 C 53.6 23 54.82 23.03 54.8 23 Z M 60 18.4 L 60.7 18.4 L 60.6 19.4 C 60.6 19.4 60.63 19.38 60.6 19.4 C 61.1 18.7 61.6 18.2 62.3 18.2 C 62.5 18.2 62.6 18.3 62.8 18.3 C 62.8 18.3 62.5 19.1 62.5 19.1 C 62.4 19 62.2 19 62 19 C 61.5 19 60.9 19.5 60.5 20.3 C 60.47 20.32 59.8 23.7 59.8 23.7 L 59 23.7 L 60 18.4 Z M 62.7 21.7 C 62.7 19.7 64.1 18.2 65.6 18.2 C 66.7 18.2 67.5 19 67.5 20.4 C 67.5 22.4 66.1 23.8 64.6 23.8 C 63.4 23.8 62.7 23 62.7 21.7 Z M 66.6 20.4 C 66.6 19.5 66.2 18.9 65.5 18.9 C 64.5 18.9 63.5 20.1 63.5 21.6 C 63.5 22.6 64 23.1 64.7 23.1 C 65.7 23.1 66.6 21.9 66.6 20.4 Z M 69.8 15.9 L 70.7 15.9 L 69.6 21.2 L 69.7 21.2 L 72.4 18.4 L 73.4 18.4 L 71.2 20.6 L 72.5 23.7 L 71.7 23.7 L 70.6 21.1 L 69.4 22.3 L 69.1 23.7 L 68.3 23.7 L 69.8 15.9 Z M 76.3 18.2 C 77.5 18.2 77.9 19.1 77.9 20.2 C 77.9 20.6 77.8 21 77.7 21.2 C 77.7 21.2 74.2 21.2 74.2 21.2 C 74 22.6 74.8 23.2 75.7 23.2 C 76.1 23.2 76.5 23 76.9 22.7 C 76.9 22.7 77.2 23.3 77.2 23.3 C 76.8 23.6 76.2 23.8 75.5 23.8 C 74.2 23.8 73.4 23 73.4 21.6 C 73.4 19.6 74.9 18.2 76.3 18.2 Z M 77.1 20.6 C 77.2 20.5 77.2 20.3 77.2 20.1 C 77.2 19.5 76.9 18.9 76.2 18.9 C 75.4 18.9 74.6 19.6 74.3 20.6 C 74.3 20.6 77.1 20.6 77.1 20.6 Z M 79.7 18.4 L 80.4 18.4 L 80.2 19.4 C 80.2 19.4 80.29 19.38 80.3 19.4 C 80.7 18.7 81.3 18.2 81.9 18.2 C 82.1 18.2 82.3 18.3 82.5 18.3 C 82.5 18.3 82.2 19.1 82.2 19.1 C 82 19 81.9 19 81.7 19 C 81.2 19 80.6 19.5 80.1 20.3 C 80.12 20.32 79.5 23.7 79.5 23.7 L 78.6 23.7 L 79.7 18.4 Z " stroke="none" fill="#000"/>  </g>  <g id="Polygon399">    <path d="M 1.1 1.4 L 3.1 1.4 L 3.1 8.8 L 6.7 8.8 L 6.7 10.5 L 1.1 10.5 L 1.1 1.4 Z M 7.6 7 C 7.6 4.8 9.2 3.4 10.8 3.4 C 12.8 3.4 13.8 4.8 13.8 6.7 C 13.8 7.1 13.7 7.5 13.7 7.6 C 13.7 7.6 9.5 7.6 9.5 7.6 C 9.7 8.6 10.4 9.1 11.4 9.1 C 11.9 9.1 12.3 8.9 12.9 8.6 C 12.9 8.6 13.5 9.9 13.5 9.9 C 12.8 10.4 11.9 10.7 11.1 10.7 C 9.1 10.7 7.6 9.3 7.6 7 Z M 12 6.3 C 12 5.5 11.7 5 10.9 5 C 10.2 5 9.7 5.4 9.5 6.3 C 9.5 6.3 12 6.3 12 6.3 Z M 14.9 13.1 C 14.9 13.1 15.3 11.5 15.3 11.5 C 15.4 11.5 15.6 11.6 15.8 11.6 C 16.4 11.6 16.8 11.2 17 10.7 C 16.97 10.68 17.1 10.3 17.1 10.3 L 14.4 3.6 L 16.5 3.6 C 16.5 3.6 17.46 6.54 17.5 6.5 C 17.7 7.2 17.8 7.8 18 8.5 C 18 8.5 18.1 8.5 18.1 8.5 C 18.2 7.9 18.4 7.2 18.5 6.5 C 18.54 6.54 19.4 3.6 19.4 3.6 L 21.3 3.6 C 21.3 3.6 18.94 10.57 18.9 10.6 C 18.3 12.3 17.5 13.2 15.9 13.2 C 15.5 13.2 15.2 13.2 14.9 13.1 Z M 22.4 8.3 C 22.43 8.34 22.4 0.7 22.4 0.7 L 24.5 0.7 C 24.5 0.7 24.48 8.43 24.5 8.4 C 24.5 8.9 24.7 9 24.8 9 C 24.9 9 25 9 25.1 9 C 25.1 9 25.4 10.5 25.4 10.5 C 25.1 10.6 24.8 10.7 24.3 10.7 C 22.9 10.7 22.4 9.7 22.4 8.3 Z M 26.1 8.6 C 26.1 7.1 27.3 6.3 30 6 C 30 5.4 29.7 5 28.9 5 C 28.3 5 27.8 5.3 27.1 5.7 C 27.1 5.7 26.3 4.3 26.3 4.3 C 27.2 3.8 28.2 3.4 29.3 3.4 C 31.1 3.4 32.1 4.4 32.1 6.5 C 32.07 6.52 32.1 10.5 32.1 10.5 L 30.4 10.5 L 30.3 9.8 C 30.3 9.8 30.2 9.79 30.2 9.8 C 29.6 10.3 29 10.7 28.2 10.7 C 26.9 10.7 26.1 9.7 26.1 8.6 Z M 30 8.5 C 30 8.5 30 7.3 30 7.3 C 28.6 7.5 28.1 7.9 28.1 8.4 C 28.1 8.9 28.4 9.1 28.9 9.1 C 29.3 9.1 29.7 8.8 30 8.5 Z M 35.9 9 C 35.9 9 37.3 8 37.3 8 C 37.7 8.6 38.1 8.9 38.6 8.9 C 39.3 8.9 39.7 8.5 39.7 7.3 C 39.73 7.29 39.7 1.4 39.7 1.4 L 41.8 1.4 C 41.8 1.4 41.79 7.46 41.8 7.5 C 41.8 9.2 40.9 10.7 38.9 10.7 C 37.5 10.7 36.6 10.1 35.9 9 Z M 43.7 3.6 L 45.8 3.6 L 45.8 10.5 L 43.7 10.5 L 43.7 3.6 Z M 43.6 1.5 C 43.6 0.8 44.1 0.4 44.8 0.4 C 45.5 0.4 45.9 0.8 45.9 1.5 C 45.9 2.1 45.5 2.5 44.8 2.5 C 44.1 2.5 43.6 2.1 43.6 1.5 Z M 47.6 3.6 L 49.3 3.6 L 49.4 4.5 C 49.4 4.5 49.47 4.45 49.5 4.5 C 50 3.9 50.7 3.4 51.6 3.4 C 52.6 3.4 53.1 3.8 53.5 4.5 C 54.1 3.9 54.8 3.4 55.7 3.4 C 57.2 3.4 57.8 4.5 57.8 6.2 C 57.85 6.19 57.8 10.5 57.8 10.5 L 55.8 10.5 C 55.8 10.5 55.79 6.45 55.8 6.5 C 55.8 5.4 55.5 5.1 54.9 5.1 C 54.6 5.1 54.2 5.4 53.7 5.8 C 53.74 5.81 53.7 10.5 53.7 10.5 L 51.7 10.5 C 51.7 10.5 51.69 6.45 51.7 6.5 C 51.7 5.4 51.4 5.1 50.8 5.1 C 50.5 5.1 50.1 5.4 49.7 5.8 C 49.66 5.81 49.7 10.5 49.7 10.5 L 47.6 10.5 L 47.6 3.6 Z M 59.2 7 C 59.2 4.8 60.8 3.4 62.5 3.4 C 64.4 3.4 65.4 4.8 65.4 6.7 C 65.4 7.1 65.4 7.5 65.3 7.6 C 65.3 7.6 61.2 7.6 61.2 7.6 C 61.4 8.6 62.1 9.1 63 9.1 C 63.5 9.1 64 8.9 64.5 8.6 C 64.5 8.6 65.2 9.9 65.2 9.9 C 64.5 10.4 63.5 10.7 62.7 10.7 C 60.7 10.7 59.2 9.3 59.2 7 Z M 63.7 6.3 C 63.7 5.5 63.3 5 62.5 5 C 61.9 5 61.3 5.4 61.2 6.3 C 61.2 6.3 63.7 6.3 63.7 6.3 Z M 66.8 3.6 L 68.5 3.6 L 68.7 4.4 C 68.7 4.4 68.72 4.44 68.7 4.4 C 69.3 3.9 70 3.4 71 3.4 C 72.5 3.4 73.1 4.5 73.1 6.2 C 73.11 6.19 73.1 10.5 73.1 10.5 L 71 10.5 C 71 10.5 71.05 6.45 71 6.5 C 71 5.4 70.8 5.1 70.2 5.1 C 69.7 5.1 69.4 5.4 68.9 5.8 C 68.91 5.81 68.9 10.5 68.9 10.5 L 66.8 10.5 L 66.8 3.6 Z M 74.5 7 C 74.5 4.8 76.1 3.4 77.7 3.4 C 79.7 3.4 80.7 4.8 80.7 6.7 C 80.7 7.1 80.6 7.5 80.6 7.6 C 80.6 7.6 76.4 7.6 76.4 7.6 C 76.6 8.6 77.3 9.1 78.2 9.1 C 78.8 9.1 79.2 8.9 79.7 8.6 C 79.7 8.6 80.4 9.9 80.4 9.9 C 79.7 10.4 78.8 10.7 78 10.7 C 76 10.7 74.5 9.3 74.5 7 Z M 78.9 6.3 C 78.9 5.5 78.6 5 77.8 5 C 77.1 5 76.6 5.4 76.4 6.3 C 76.4 6.3 78.9 6.3 78.9 6.3 Z M 81.6 9.4 L 84.5 5.2 L 82 5.2 L 82 3.6 L 87.1 3.6 L 87.1 4.6 L 84.2 8.9 L 87.2 8.9 L 87.2 10.5 L 81.6 10.5 L 81.6 9.4 Z " stroke="none" fill="#000"/>  </g></svg>